<mxfile host="app.diagrams.net" modified="2024-11-06T11:02:41.252Z" agent="Mozilla/5.0 (Macintosh; Intel Mac OS X 10_15_7) AppleWebKit/537.36 (KHTML, like Gecko) Chrome/130.0.0.0 Safari/537.36" etag="9I7i18bGJr-CUY1HWDvT" version="23.1.1" type="device">
  <diagram name="Page-1" id="m0toaEJ38Rpnz6CX_Hyn">
    <mxGraphModel dx="826" dy="493" grid="1" gridSize="10" guides="1" tooltips="1" connect="1" arrows="1" fold="1" page="1" pageScale="1" pageWidth="827" pageHeight="1169" background="#FFFFFF" math="0" shadow="0">
      <root>
        <mxCell id="0" />
        <mxCell id="1" parent="0" />
        <mxCell id="KxRIgBF0Dorw-LnUTJOw-4" value="Client" style="swimlane;fontStyle=1;align=center;verticalAlign=top;childLayout=stackLayout;horizontal=1;startSize=26;horizontalStack=0;resizeParent=1;resizeParentMax=0;resizeLast=0;collapsible=1;marginBottom=0;whiteSpace=wrap;html=1;" vertex="1" parent="1">
          <mxGeometry x="120" y="199" width="160" height="86" as="geometry" />
        </mxCell>
        <mxCell id="KxRIgBF0Dorw-LnUTJOw-5" value="&amp;nbsp;" style="text;strokeColor=none;fillColor=none;align=left;verticalAlign=top;spacingLeft=4;spacingRight=4;overflow=hidden;rotatable=0;points=[[0,0.5],[1,0.5]];portConstraint=eastwest;whiteSpace=wrap;html=1;" vertex="1" parent="KxRIgBF0Dorw-LnUTJOw-4">
          <mxGeometry y="26" width="160" height="26" as="geometry" />
        </mxCell>
        <mxCell id="KxRIgBF0Dorw-LnUTJOw-6" value="" style="line;strokeWidth=1;fillColor=none;align=left;verticalAlign=middle;spacingTop=-1;spacingLeft=3;spacingRight=3;rotatable=0;labelPosition=right;points=[];portConstraint=eastwest;strokeColor=inherit;" vertex="1" parent="KxRIgBF0Dorw-LnUTJOw-4">
          <mxGeometry y="52" width="160" height="8" as="geometry" />
        </mxCell>
        <mxCell id="KxRIgBF0Dorw-LnUTJOw-7" value="&amp;nbsp;" style="text;strokeColor=none;fillColor=none;align=left;verticalAlign=top;spacingLeft=4;spacingRight=4;overflow=hidden;rotatable=0;points=[[0,0.5],[1,0.5]];portConstraint=eastwest;whiteSpace=wrap;html=1;" vertex="1" parent="KxRIgBF0Dorw-LnUTJOw-4">
          <mxGeometry y="60" width="160" height="26" as="geometry" />
        </mxCell>
        <mxCell id="KxRIgBF0Dorw-LnUTJOw-10" value="Handler" style="swimlane;fontStyle=0;childLayout=stackLayout;horizontal=1;startSize=26;fillColor=none;horizontalStack=0;resizeParent=1;resizeParentMax=0;resizeLast=0;collapsible=1;marginBottom=0;whiteSpace=wrap;html=1;" vertex="1" parent="1">
          <mxGeometry x="350" y="110" width="230" height="52" as="geometry" />
        </mxCell>
        <mxCell id="KxRIgBF0Dorw-LnUTJOw-11" value="handleRequest()" style="text;strokeColor=none;fillColor=none;align=left;verticalAlign=top;spacingLeft=4;spacingRight=4;overflow=hidden;rotatable=0;points=[[0,0.5],[1,0.5]];portConstraint=eastwest;whiteSpace=wrap;html=1;" vertex="1" parent="KxRIgBF0Dorw-LnUTJOw-10">
          <mxGeometry y="26" width="230" height="26" as="geometry" />
        </mxCell>
        <mxCell id="KxRIgBF0Dorw-LnUTJOw-16" value="" style="endArrow=classic;html=1;rounded=0;dashed=1;" edge="1" parent="1">
          <mxGeometry width="50" height="50" relative="1" as="geometry">
            <mxPoint x="200" y="190" as="sourcePoint" />
            <mxPoint x="350" y="140" as="targetPoint" />
            <Array as="points">
              <mxPoint x="200" y="180" />
              <mxPoint x="200" y="200" />
              <mxPoint x="200" y="160" />
              <mxPoint x="200" y="140" />
              <mxPoint x="220" y="140" />
            </Array>
          </mxGeometry>
        </mxCell>
        <mxCell id="KxRIgBF0Dorw-LnUTJOw-19" value="ConcreteHandler1" style="swimlane;fontStyle=1;align=center;verticalAlign=top;childLayout=stackLayout;horizontal=1;startSize=26;horizontalStack=0;resizeParent=1;resizeParentMax=0;resizeLast=0;collapsible=1;marginBottom=0;whiteSpace=wrap;html=1;" vertex="1" parent="1">
          <mxGeometry x="300" y="330" width="160" height="86" as="geometry" />
        </mxCell>
        <mxCell id="KxRIgBF0Dorw-LnUTJOw-20" value="&amp;nbsp;" style="text;strokeColor=none;fillColor=none;align=left;verticalAlign=top;spacingLeft=4;spacingRight=4;overflow=hidden;rotatable=0;points=[[0,0.5],[1,0.5]];portConstraint=eastwest;whiteSpace=wrap;html=1;" vertex="1" parent="KxRIgBF0Dorw-LnUTJOw-19">
          <mxGeometry y="26" width="160" height="26" as="geometry" />
        </mxCell>
        <mxCell id="KxRIgBF0Dorw-LnUTJOw-21" value="" style="line;strokeWidth=1;fillColor=none;align=left;verticalAlign=middle;spacingTop=-1;spacingLeft=3;spacingRight=3;rotatable=0;labelPosition=right;points=[];portConstraint=eastwest;strokeColor=inherit;" vertex="1" parent="KxRIgBF0Dorw-LnUTJOw-19">
          <mxGeometry y="52" width="160" height="8" as="geometry" />
        </mxCell>
        <mxCell id="KxRIgBF0Dorw-LnUTJOw-22" value="handleRequest()" style="text;strokeColor=none;fillColor=none;align=left;verticalAlign=top;spacingLeft=4;spacingRight=4;overflow=hidden;rotatable=0;points=[[0,0.5],[1,0.5]];portConstraint=eastwest;whiteSpace=wrap;html=1;" vertex="1" parent="KxRIgBF0Dorw-LnUTJOw-19">
          <mxGeometry y="60" width="160" height="26" as="geometry" />
        </mxCell>
        <mxCell id="KxRIgBF0Dorw-LnUTJOw-23" value="ConcreteHandler2" style="swimlane;fontStyle=1;align=center;verticalAlign=top;childLayout=stackLayout;horizontal=1;startSize=26;horizontalStack=0;resizeParent=1;resizeParentMax=0;resizeLast=0;collapsible=1;marginBottom=0;whiteSpace=wrap;html=1;" vertex="1" parent="1">
          <mxGeometry x="470" y="330" width="160" height="86" as="geometry" />
        </mxCell>
        <mxCell id="KxRIgBF0Dorw-LnUTJOw-24" value="&amp;nbsp;" style="text;strokeColor=none;fillColor=none;align=left;verticalAlign=top;spacingLeft=4;spacingRight=4;overflow=hidden;rotatable=0;points=[[0,0.5],[1,0.5]];portConstraint=eastwest;whiteSpace=wrap;html=1;" vertex="1" parent="KxRIgBF0Dorw-LnUTJOw-23">
          <mxGeometry y="26" width="160" height="26" as="geometry" />
        </mxCell>
        <mxCell id="KxRIgBF0Dorw-LnUTJOw-25" value="" style="line;strokeWidth=1;fillColor=none;align=left;verticalAlign=middle;spacingTop=-1;spacingLeft=3;spacingRight=3;rotatable=0;labelPosition=right;points=[];portConstraint=eastwest;strokeColor=inherit;" vertex="1" parent="KxRIgBF0Dorw-LnUTJOw-23">
          <mxGeometry y="52" width="160" height="8" as="geometry" />
        </mxCell>
        <mxCell id="KxRIgBF0Dorw-LnUTJOw-26" value="handleRequest()" style="text;strokeColor=none;fillColor=none;align=left;verticalAlign=top;spacingLeft=4;spacingRight=4;overflow=hidden;rotatable=0;points=[[0,0.5],[1,0.5]];portConstraint=eastwest;whiteSpace=wrap;html=1;" vertex="1" parent="KxRIgBF0Dorw-LnUTJOw-23">
          <mxGeometry y="60" width="160" height="26" as="geometry" />
        </mxCell>
        <mxCell id="KxRIgBF0Dorw-LnUTJOw-29" value="" style="endArrow=classic;html=1;rounded=0;entryX=0.201;entryY=1.094;entryDx=0;entryDy=0;entryPerimeter=0;exitX=0.615;exitY=-0.03;exitDx=0;exitDy=0;exitPerimeter=0;" edge="1" parent="1" source="KxRIgBF0Dorw-LnUTJOw-19" target="KxRIgBF0Dorw-LnUTJOw-11">
          <mxGeometry width="50" height="50" relative="1" as="geometry">
            <mxPoint x="400" y="320" as="sourcePoint" />
            <mxPoint x="381.9402985074628" y="276" as="targetPoint" />
          </mxGeometry>
        </mxCell>
        <mxCell id="KxRIgBF0Dorw-LnUTJOw-30" value="" style="endArrow=classic;html=1;rounded=0;entryX=0.201;entryY=1.094;entryDx=0;entryDy=0;entryPerimeter=0;exitX=0.615;exitY=-0.03;exitDx=0;exitDy=0;exitPerimeter=0;" edge="1" parent="1">
          <mxGeometry width="50" height="50" relative="1" as="geometry">
            <mxPoint x="510" y="328" as="sourcePoint" />
            <mxPoint x="508" y="165" as="targetPoint" />
          </mxGeometry>
        </mxCell>
        <mxCell id="KxRIgBF0Dorw-LnUTJOw-31" value="1" style="endArrow=none;html=1;endSize=12;startArrow=diamondThin;startSize=14;startFill=0;edgeStyle=orthogonalEdgeStyle;align=left;verticalAlign=bottom;rounded=0;entryX=1;entryY=0.25;entryDx=0;entryDy=0;" edge="1" parent="1" target="KxRIgBF0Dorw-LnUTJOw-10">
          <mxGeometry x="-1" y="3" relative="1" as="geometry">
            <mxPoint x="630" y="360.5" as="sourcePoint" />
            <mxPoint x="680" y="118" as="targetPoint" />
            <Array as="points">
              <mxPoint x="681" y="361" />
              <mxPoint x="681" y="123" />
            </Array>
          </mxGeometry>
        </mxCell>
        <mxCell id="KxRIgBF0Dorw-LnUTJOw-36" value="&lt;b&gt;Chain of responsibility&lt;/b&gt;" style="text;html=1;align=center;verticalAlign=middle;resizable=0;points=[];autosize=1;strokeColor=none;fillColor=none;" vertex="1" parent="1">
          <mxGeometry x="365" y="50" width="150" height="30" as="geometry" />
        </mxCell>
        <mxCell id="KxRIgBF0Dorw-LnUTJOw-37" value="Behavioural design pattern" style="text;html=1;align=center;verticalAlign=middle;resizable=0;points=[];autosize=1;strokeColor=none;fillColor=none;" vertex="1" parent="1">
          <mxGeometry x="355" y="30" width="170" height="30" as="geometry" />
        </mxCell>
      </root>
    </mxGraphModel>
  </diagram>
</mxfile>
